<svg width="27" height="30" viewBox="0 0 27 30" fill="none" xmlns="http://www.w3.org/2000/svg">
<g clip-path="url(#clip0_13_13)">
<path d="M19.6262 10.8022C21.5584 12.1827 23.9255 12.995 26.482 12.995V8.07806C25.9982 8.07825 25.5156 8.02777 25.0422 7.92744V11.7977C22.4859 11.7977 20.1191 10.9856 18.1865 9.60516V19.6392C18.1865 24.6589 14.1152 28.7277 9.09341 28.7277C7.21965 28.7277 5.478 28.1615 4.03127 27.1904C5.68251 28.878 7.98527 29.9248 10.5328 29.9248C15.555 29.9248 19.6264 25.856 19.6264 20.8361V10.8022H19.6262ZM21.4024 5.84161C20.4149 4.76337 19.7665 3.36992 19.6262 1.82937V1.19699H18.2618C18.6053 3.15496 19.7768 4.82772 21.4024 5.84161ZM7.20755 23.3386C6.65579 22.6157 6.35756 21.7312 6.35896 20.8217C6.35896 18.526 8.22113 16.6646 10.5186 16.6646C10.9467 16.6643 11.3723 16.73 11.7804 16.8594V11.8325C11.3035 11.7672 10.8222 11.7394 10.3412 11.7496V15.6623C9.93291 15.5329 9.50712 15.4672 9.07882 15.4676C6.78145 15.4676 4.91938 17.3288 4.91938 19.6249C4.91938 21.2484 5.8501 22.6539 7.20755 23.3386Z" fill="#FF004F"/>
<path d="M18.1865 9.60506C20.1192 10.9855 22.4858 11.7976 25.0422 11.7976V7.92734C23.6153 7.62351 22.3521 6.87827 21.4023 5.84161C19.7766 4.82761 18.6053 3.15485 18.2618 1.19699H14.6781V20.8359C14.6699 23.1254 12.8109 24.9792 10.5184 24.9792C9.16759 24.9792 7.96738 24.3357 7.20735 23.3385C5.8501 22.6539 4.91928 21.2483 4.91928 19.625C4.91928 17.3291 6.78135 15.4677 9.07873 15.4677C9.5189 15.4677 9.94314 15.5362 10.3411 15.6624V11.7498C5.40745 11.8516 1.43969 15.8807 1.43969 20.836C1.43969 23.3097 2.42772 25.5521 4.03138 27.1906C5.4781 28.1615 7.21966 28.7279 9.09352 28.7279C14.1154 28.7279 18.1866 24.6587 18.1866 19.6392L18.1865 9.60506Z" fill="black"/>
<path d="M25.0422 7.92724V6.88097C23.7555 6.88283 22.4941 6.52266 21.4023 5.84162C22.3687 6.89908 23.6413 7.62831 25.0422 7.92745M18.2617 1.1969C18.229 1.00982 18.2039 0.821491 18.1864 0.632379V0H13.2381V19.6391C13.2302 21.9285 11.3712 23.7822 9.07862 23.7822C8.42868 23.7832 7.78763 23.6313 7.20724 23.3388C7.96728 24.3357 9.16748 24.9791 10.5183 24.9791C12.8107 24.9791 14.6699 23.1256 14.678 20.836V1.197L18.2617 1.1969ZM10.3413 11.7497V10.6356C9.92781 10.5792 9.51095 10.5509 9.09362 10.551C4.07121 10.551 0 14.62 0 19.6391C0 22.7859 1.60003 25.5592 4.03148 27.1905C2.42783 25.552 1.43979 23.3095 1.43979 20.8359C1.43979 15.8808 5.40745 11.8516 10.3413 11.7497Z" fill="#00F2EA"/>
</g>
<defs>
<clipPath id="clip0_13_13">
<rect width="26.4828" height="30" fill="white"/>
</clipPath>
</defs>
</svg>
